<?xml version="1.0" encoding="utf-8"?>
<!-- Generator: Adobe Illustrator 22.1.0, SVG Export Plug-In . SVG Version: 6.00 Build 0)  -->
<svg version="1.1" id="Layer_4" xmlns="http://www.w3.org/2000/svg" xmlns:xlink="http://www.w3.org/1999/xlink" x="0px" y="0px"
	 viewBox="0 0 280.1 284.3" style="enable-background:new 0 0 280.1 284.3;" xml:space="preserve">
<style type="text/css">
	.st0{fill:none;stroke:#020202;stroke-width:7;stroke-miterlimit:10;}
	.st1{stroke:#020202;stroke-miterlimit:10;}
</style>
<g>
	<g>
		<polyline class="st0" points="139.3,256.8 15.2,256.8 15.2,237.8 26.2,237.8 140.2,237.8 		"/>
		<polyline class="st0" points="26.2,237.8 26.2,221.3 138.8,221.3 		"/>
		<line class="st0" x1="58.7" y1="221.3" x2="58.7" y2="174.3"/>
		<polyline class="st0" points="77.7,221.8 77.7,189.8 92.7,189.8 92.7,221.3 		"/>
		<line class="st0" x1="113.2" y1="175.5" x2="113.2" y2="221.3"/>
		<path class="st0" d="M138.4,140.8H13.7c0,0,21.5,34.5,56,34.5h69"/>
		<line class="st0" x1="65.7" y1="140.8" x2="65.7" y2="112.6"/>
		<path class="st0" d="M138.3,121.7c-35.5,0-73.7-4-104.5-23c-2.1-1.3-5.6-5-8.3-6.5c2.8,16.5,25,32.3,40.1,35.6"/>
		<path class="st0" d="M24.7,92.3l51.5,4c0.7-6.6,2.3-15.3,4.8-21.3c18.1,8.2,38.3,7.8,57.7,7.8"/>
		<polyline class="st0" points="137.5,256.8 261.7,256.8 261.7,237.8 250.7,237.8 136.7,237.8 		"/>
		<polyline class="st0" points="250.7,237.8 250.7,221.3 138,221.3 		"/>
		<line class="st0" x1="218.2" y1="221.3" x2="218.2" y2="174.3"/>
		<polyline class="st0" points="199.2,221.8 199.2,189.8 184.2,189.8 184.2,221.3 		"/>
		<line class="st0" x1="163.7" y1="175.5" x2="163.7" y2="221.3"/>
		<path class="st0" d="M138.4,140.8h124.8c0,0-21.5,34.5-56,34.5h-69"/>
		<line class="st0" x1="211.2" y1="140.8" x2="211.2" y2="112.6"/>
		<path class="st0" d="M138.3,121.7c13.6,0,27.6-1.2,41.1-2.7c10.6-1.2,21.2-3,31.5-6c7.3-2.2,14.3-5,21.1-8.4
			c4.4-2.2,8.6-4.5,12.7-7.1c2.1-1.4,3.7-3.6,6.1-4.5c-0.8,4-4.1,8-6.5,11.3c-4.9,6.8-10.3,13.1-17.7,17.3
			c-4.6,2.6-10.3,5.2-15.5,6.3"/>
		<path class="st0" d="M252.2,92.3l-51.5,4c-0.7-6.6-2.3-15.3-4.8-21.3c-18.1,8.2-41,7.8-57.7,7.8"/>
		<polyline class="st0" points="131.8,221 131.8,191 146.8,191 146.8,220.5 		"/>
	</g>
	<g>
		<path d="M268.1,80.3h5.3c0,2.3-1.4,4.4-4.9,5.5c-0.2-0.4-0.6-0.9-1-1.3c2.1-0.2,3.9-1.9,3.9-2.8h-3.4V80.3z M269.1,86.2h7.7V90
			h-1.6v-2.5h-6.1L269.1,86.2L269.1,86.2z M276.2,79.7c0.6,0,0.8,0,0.8,0.1c0,0.1-0.1,0.3-0.1,0.6v5.1h-1.6v-5.8
			C275.2,79.7,276.2,79.7,276.2,79.7z"/>
		<path d="M267.3,101.4h10.3v1.3h-10.3V101.4z M272.7,94.1c0.5,0,0.7,0.1,0.7,0.3c0,0.1,0,0.2-0.1,0.3c0,0.7,1.6,2.8,4.2,3.2
			c-0.3,0.3-0.7,0.9-1,1.3c-1.7-0.4-3.5-1.7-4-2.8c-0.4,1.2-2.3,2.5-3.8,3c-0.3-0.4-0.7-0.9-1.2-1.2c2.2-0.4,4.1-2.4,4.1-4
			L272.7,94.1L272.7,94.1z"/>
		<path d="M267.8,108.3h2.8v1.4h-1.3v2.2c0.3,0,0.9-0.1,1.4-0.2c0.1,0.4,0.2,0.8,0.2,1.3c-1,0.2-2.1,0.4-3.1,0.4L267.8,108.3
			L267.8,108.3z M276.9,116.1c0,1.1-1.3,2.1-4.1,2.1c-2.9,0-4.1-1-4.1-2.1c0-1.1,1.3-2.1,4.1-2.1C275.6,114,276.9,115,276.9,116.1z
			 M270.3,116.1c0,0.6,0.7,1,2.5,1c1.7,0,2.5-0.4,2.5-1c0-0.5-0.7-0.9-2.4-0.9C271,115.1,270.3,115.5,270.3,116.1z M271.1,108.3h3.1
			v1.4h-1.5v2.2c0.7,0,1.3-0.1,1.8-0.1c0.1,0.4,0.2,0.8,0.2,1.3c-0.9,0.2-2.5,0.3-3.6,0.3L271.1,108.3L271.1,108.3z M276.2,107.7
			c0.6,0,0.8,0,0.8,0.1c0,0.1-0.1,0.3-0.1,0.6v5.7h-1.6v-6.4C275.2,107.7,276.2,107.7,276.2,107.7z"/>
		<path d="M267.3,129.4h10.3v1.3h-10.3V129.4z M272.7,122.1c0.5,0,0.7,0.1,0.7,0.3c0,0.1,0,0.2-0.1,0.3c0,0.7,1.6,2.8,4.2,3.2
			c-0.3,0.3-0.7,0.9-1,1.3c-1.7-0.4-3.5-1.7-4-2.8c-0.4,1.2-2.3,2.5-3.8,3c-0.3-0.4-0.7-0.9-1.2-1.2c2.2-0.4,4.1-2.4,4.1-4
			L272.7,122.1L272.7,122.1z"/>
	</g>
	<g>
		<path class="st1" d="M41.8,281.4v2.4h-3.7c-1,0-2-0.2-2.8-0.6s-1.7-0.9-2.3-1.6s-1.2-1.4-1.6-2.3c-0.4-0.9-0.6-1.8-0.6-2.8
			s0.2-2,0.6-2.8c0.4-0.9,0.9-1.7,1.6-2.3c0.7-0.7,1.4-1.2,2.3-1.6c0.9-0.4,1.8-0.6,2.8-0.6h3.7v2.4h-3.7c-0.7,0-1.3,0.1-1.9,0.4
			c-0.6,0.3-1.1,0.6-1.5,1s-0.8,1-1,1.5s-0.4,1.2-0.4,1.9s0.1,1.3,0.4,1.9c0.3,0.6,0.6,1.1,1,1.5s1,0.8,1.5,1
			c0.6,0.3,1.2,0.4,1.9,0.4L41.8,281.4L41.8,281.4z M41.8,277.7v2.4h-2.4v-2.4h-4.6c-0.2-0.4-0.2-0.8-0.2-1.2c0-0.4,0.1-0.8,0.2-1.2
			h7.1L41.8,277.7L41.8,277.7z"/>
		<path class="st1" d="M53.8,281.4v2.4h-3c-1,0-2-0.2-2.8-0.6s-1.7-0.9-2.3-1.6s-1.2-1.4-1.6-2.3c-0.4-0.9-0.6-1.8-0.6-2.8
			s0.2-2,0.6-2.8c0.4-0.9,0.9-1.6,1.6-2.3s1.4-1.2,2.3-1.6c0.9-0.4,1.8-0.6,2.8-0.6h3v2.4h-3c-0.7,0-1.3,0.1-1.9,0.4
			c-0.6,0.3-1.1,0.6-1.5,1s-0.8,1-1,1.5s-0.4,1.2-0.4,1.9s0.1,1.3,0.4,1.9c0.3,0.6,0.6,1.1,1,1.5s1,0.8,1.5,1
			c0.6,0.3,1.2,0.4,1.9,0.4L53.8,281.4L53.8,281.4z M53.8,275.3v2.4h-6.5c-0.2-0.4-0.2-0.8-0.2-1.2c0-0.4,0.1-0.8,0.2-1.2H53.8z"/>
		<path class="st1" d="M65.8,281.4v2.4h-3c-1,0-2-0.2-2.8-0.6s-1.7-0.9-2.3-1.6s-1.2-1.4-1.6-2.3c-0.4-0.9-0.6-1.8-0.6-2.8
			s0.2-2,0.6-2.8c0.4-0.9,0.9-1.6,1.6-2.3s1.4-1.2,2.3-1.6c0.9-0.4,1.8-0.6,2.8-0.6h3v2.4h-3c-0.7,0-1.3,0.1-1.9,0.4
			c-0.6,0.3-1.1,0.6-1.5,1s-0.8,1-1,1.5s-0.4,1.2-0.4,1.9s0.1,1.3,0.4,1.9c0.3,0.6,0.6,1.1,1,1.5s1,0.8,1.5,1
			c0.6,0.3,1.2,0.4,1.9,0.4L65.8,281.4L65.8,281.4z M65.8,275.3v2.4h-6.5c-0.2-0.4-0.2-0.8-0.2-1.2c0-0.4,0.1-0.8,0.2-1.2H65.8z"/>
		<path class="st1" d="M70.8,269.2v14.6h-2.4v-14.6H70.8z M79.8,269.2l-4.9,7.3l4.9,7.3h-2.9l-4.9-7.3l4.9-7.3H79.8z"/>
		<path class="st1" d="M91.9,269.2v2.4h-5.7c-0.3,0-0.7,0.1-0.9,0.2c-0.3,0.1-0.6,0.3-0.8,0.5c-0.2,0.2-0.4,0.5-0.5,0.8
			s-0.2,0.6-0.2,0.9v2.4h-2.4v-2.4c0-0.7,0.1-1.3,0.4-1.9s0.6-1.1,1-1.5c0.4-0.4,1-0.8,1.5-1s1.2-0.4,1.9-0.4H91.9z M91.9,276.5v2.4
			c0,0.7-0.1,1.3-0.4,1.9s-0.6,1.1-1,1.5c-0.4,0.4-1,0.8-1.5,1s-1.2,0.4-1.9,0.4h-5.7v-2.4h5.7c0.3,0,0.6-0.1,0.9-0.2
			c0.3-0.1,0.5-0.3,0.8-0.5c0.2-0.2,0.4-0.5,0.5-0.8c0.1-0.3,0.2-0.6,0.2-0.9v-2.4H91.9z"/>
		<path class="st1" d="M94.5,266c0-0.2,0.1-0.4,0.2-0.6c0.1-0.2,0.4-0.3,0.9-0.3c0.3,0,0.6,0.1,0.8,0.3s0.4,0.5,0.5,1
			c0.1,0.7,0.2,1.4,0.1,1.9c0,0.5-0.2,1.1-0.5,1.6c-0.3,0.5-0.6,0.9-1,1.2c-0.4,0.3-0.7,0.5-1.1,0.5c-0.3,0-0.4-0.1-0.5-0.4
			s0.1-0.5,0.3-0.7c0.3-0.3,0.6-0.5,0.9-0.7c0.3-0.2,0.6-0.6,0.7-1c0.1-0.4,0.1-0.7,0-1.1c-0.1-0.4-0.4-0.7-0.7-0.9
			c-0.3-0.2-0.5-0.3-0.7-0.5S94.5,266.2,94.5,266z"/>
		<path class="st1" d="M115.9,269.2v2.4h-10.7v-2.4h0.5H115.9z M111.8,272.9v10.9h-2.4v-10.9H111.8z"/>
		<path class="st1" d="M128.5,279v4.9H126v-6.1H120v6.1h-2.4v-8.5h8.5v-6.1h2.4v6.1v2.4V279z M120,269.2v4.9h-2.4v-4.9H120z"/>
		<path class="st1" d="M133.9,269.3v14.6h-2.4v-14.6H133.9z"/>
		<path class="st1" d="M139.4,269.3l9.7,14.6h-2.4h-0.5l-6.8-10.2v10.2H137v-14.6H139.4z M149.1,269.3v12.4l-2.4-3.6v-8.7
			L149.1,269.3L149.1,269.3z"/>
		<path class="st1" d="M161.6,281.4v2.4h-3.7c-1,0-2-0.2-2.8-0.6s-1.7-0.9-2.3-1.6s-1.2-1.4-1.6-2.3c-0.4-0.9-0.6-1.8-0.6-2.8
			s0.2-2,0.6-2.8c0.4-0.9,0.9-1.7,1.6-2.3c0.7-0.7,1.4-1.2,2.3-1.6c0.9-0.4,1.8-0.6,2.8-0.6h3.7v2.4h-3.7c-0.7,0-1.3,0.1-1.9,0.4
			c-0.6,0.3-1.1,0.6-1.5,1s-0.8,1-1,1.5s-0.4,1.2-0.4,1.9s0.1,1.3,0.4,1.9c0.3,0.6,0.6,1.1,1,1.5s1,0.8,1.5,1
			c0.6,0.3,1.2,0.4,1.9,0.4L161.6,281.4L161.6,281.4z M161.6,277.7v2.4h-2.4v-2.4h-4.6c-0.2-0.4-0.2-0.8-0.2-1.2
			c0-0.4,0.1-0.8,0.2-1.2h7.1L161.6,277.7L161.6,277.7z"/>
		<path class="st1" d="M174.4,269.2v2.4h-5.7c-0.3,0-0.7,0.1-0.9,0.2c-0.3,0.1-0.6,0.3-0.8,0.5c-0.2,0.2-0.4,0.5-0.5,0.8
			s-0.2,0.6-0.2,0.9v2.4h-2.4v-2.4c0-0.7,0.1-1.3,0.4-1.9s0.6-1.1,1-1.5c0.4-0.4,1-0.8,1.5-1s1.2-0.4,1.9-0.4H174.4z M174.4,276.5
			v2.4c0,0.7-0.1,1.3-0.4,1.9s-0.6,1.1-1,1.5c-0.4,0.4-1,0.8-1.5,1s-1.2,0.4-1.9,0.4h-5.7v-2.4h5.7c0.3,0,0.6-0.1,0.9-0.2
			c0.3-0.1,0.5-0.3,0.8-0.5c0.2-0.2,0.4-0.5,0.5-0.8c0.1-0.3,0.2-0.6,0.2-0.9v-2.4H174.4z"/>
		<path class="st1" d="M186.4,269.2v14.6H184v-14.6H186.4z M195.4,269.2l-4.9,7.3l4.9,7.3h-2.9l-4.9-7.3l4.9-7.3H195.4z"/>
		<path class="st1" d="M209.5,275.3v2.4c0,0.8-0.2,1.6-0.5,2.4s-0.7,1.4-1.3,1.9s-1.2,1-1.9,1.3c-0.7,0.3-1.5,0.5-2.4,0.5h-0.7
			c-0.8,0-1.6-0.2-2.4-0.5s-1.4-0.8-1.9-1.3c-0.5-0.6-1-1.2-1.3-1.9s-0.5-1.5-0.5-2.4v-2.4c0-0.8,0.2-1.6,0.5-2.4
			c0.3-0.7,0.8-1.4,1.3-1.9c0.5-0.6,1.2-1,1.9-1.3c0.7-0.3,1.5-0.5,2.4-0.5h0.7c0.8,0,1.6,0.2,2.4,0.5c0.7,0.3,1.4,0.7,1.9,1.3
			s1,1.2,1.3,1.9C209.4,273.7,209.5,274.5,209.5,275.3z M207.1,277.7v-2.4c0-0.5-0.1-1-0.3-1.4c-0.2-0.4-0.4-0.8-0.8-1.2
			c-0.3-0.3-0.7-0.6-1.2-0.8s-0.9-0.3-1.4-0.3h-0.7c-0.5,0-1,0.1-1.4,0.3c-0.4,0.2-0.8,0.5-1.2,0.8s-0.6,0.7-0.8,1.2
			c-0.2,0.4-0.3,0.9-0.3,1.4v2.4c0,0.5,0.1,1,0.3,1.4c0.2,0.4,0.4,0.8,0.8,1.2c0.3,0.3,0.7,0.6,1.2,0.8c0.4,0.2,0.9,0.3,1.4,0.3h0.7
			c0.5,0,1-0.1,1.4-0.3c0.4-0.2,0.8-0.4,1.2-0.8c0.3-0.3,0.6-0.7,0.8-1.2C207,278.7,207.1,278.2,207.1,277.7z"/>
		<path class="st1" d="M218.5,278.6l3,5.2h-2.8l-2.8-4.9h-2.3v4.9h-2.4v-7.3h1.2h2.8h1.4c0.3,0,0.7-0.1,0.9-0.2
			c0.3-0.1,0.6-0.3,0.8-0.5s0.4-0.5,0.5-0.8c0.1-0.3,0.2-0.6,0.2-0.9s-0.1-0.6-0.2-0.9c-0.1-0.3-0.3-0.6-0.5-0.8
			c-0.2-0.2-0.5-0.4-0.8-0.5c-0.3-0.1-0.6-0.2-0.9-0.2h-5.4v-2.4h2.4h3c0.9,0,1.7,0.2,2.3,0.5c0.7,0.4,1.2,0.8,1.6,1.4
			s0.7,1.2,0.8,1.9c0.1,0.7,0.1,1.4,0,2.1s-0.5,1.3-0.9,1.9C220,277.8,219.3,278.2,218.5,278.6z"/>
		<path class="st1" d="M232.9,281.4v2.4h-3c-1,0-2-0.2-2.8-0.6s-1.7-0.9-2.3-1.6s-1.2-1.4-1.6-2.3c-0.4-0.9-0.6-1.8-0.6-2.8
			s0.2-2,0.6-2.8c0.4-0.9,0.9-1.6,1.6-2.3s1.4-1.2,2.3-1.6c0.9-0.4,1.8-0.6,2.8-0.6h3v2.4h-3c-0.7,0-1.3,0.1-1.9,0.4
			c-0.6,0.3-1.1,0.6-1.5,1s-0.8,1-1,1.5s-0.4,1.2-0.4,1.9s0.1,1.3,0.4,1.9c0.3,0.6,0.6,1.1,1,1.5s1,0.8,1.5,1
			c0.6,0.3,1.2,0.4,1.9,0.4L232.9,281.4L232.9,281.4z M232.9,275.3v2.4h-6.5c-0.2-0.4-0.2-0.8-0.2-1.2c0-0.4,0.1-0.8,0.2-1.2H232.9z
			"/>
		<path class="st1" d="M240.2,269.3l6.1,14.6H238l1-2.4h3.5l-2.4-5.8l-2.4,5.8l-1,2.4h-2.6L240.2,269.3z"/>
	</g>
	<g>
		<path d="M2.7,66l19.1,16.2l-2.7,3.2L0,69.1L2.7,66z M12.6,54.2l4.2,14.4l14.9,1.7l-3.2,3.8l-14.9-1.7L9.4,58L12.6,54.2z"/>
		<path d="M18.1,49.2L35.6,67l-3,2.9L15.2,52.1L18.1,49.2z"/>
		<path d="M47.2,51.4l2.6,3.2L46,57.8c-1.3,1.1-2.8,1.9-4.4,2.4c-1.6,0.5-3.2,0.6-4.8,0.5c-1.6-0.1-3.1-0.6-4.6-1.3
			s-2.8-1.8-3.9-3.1s-1.9-2.8-2.4-4.4c-0.5-1.6-0.6-3.2-0.5-4.8c0.1-1.6,0.6-3.1,1.3-4.6c0.7-1.5,1.8-2.8,3.1-3.9l3.9-3.2l2.7,3.2
			l-3.9,3.2c-0.9,0.7-1.6,1.6-2.1,2.6c-0.5,1-0.8,2-0.9,3.1c-0.1,1.1,0,2.1,0.3,3.2s0.8,2,1.6,2.9c0.7,0.9,1.6,1.6,2.6,2.1
			s2,0.8,3.1,0.9s2.1,0,3.2-0.3c1.1-0.3,2-0.8,2.9-1.6L47.2,51.4z"/>
		<path d="M41,30.4l13.5,21L51,53.7l-13.5-21L41,30.4z M54,22.1l-0.3,15l13.7,6l-4.2,2.7l-13.7-6l0.3-15L54,22.1z"/>
		<path d="M71.2,14l10,22.9l-3.8,1.7l-10-22.9L71.2,14z"/>
		<path d="M91.4,6.6l1.4,4l-17.3,5.9l-1.4-4l0.8-0.3L91.4,6.6z M86.7,14.8l6.1,17.7l-3.9,1.3l-6.1-17.7L86.7,14.8z"/>
		<path d="M122.1,21.8l0.7,4.1l-9,1.5l-4.1,0.7l-4-24.6l4.1-0.7l3.4,20.5L122.1,21.8z"/>
		<path d="M124.7,0.8l2.3,24.8l-4.1,0.4l-2.3-24.8L124.7,0.8z"/>
		<path d="M133.7,0.2l0.4,25l-4.1,0.1l-0.4-25L133.7,0.2z M149.1,0L141,12.6l8.5,12.4l-5,0.1L136,12.7l8.1-12.6L149.1,0z"/>
		<path d="M166.8,23.2l-0.5,4.1l-5.2-0.6c-1.7-0.2-3.3-0.7-4.7-1.6c-1.4-0.8-2.6-1.9-3.6-3.2c-1-1.3-1.7-2.7-2.2-4.3
			s-0.6-3.2-0.4-4.9s0.7-3.3,1.6-4.7c0.8-1.4,1.9-2.6,3.1-3.6c1.3-1,2.7-1.7,4.3-2.2c1.6-0.5,3.2-0.6,4.9-0.4l5.2,0.6l-0.5,4.1
			L163.6,6c-1.1-0.1-2.2-0.1-3.3,0.2s-2,0.8-2.8,1.4c-0.8,0.7-1.5,1.5-2.1,2.4c-0.6,0.9-0.9,2-1,3.1c-0.1,1.1-0.1,2.2,0.2,3.3
			c0.3,1.1,0.8,2,1.4,2.8s1.5,1.5,2.4,2.1c0.9,0.6,2,0.9,3.1,1L166.8,23.2z M168.1,12.8l-0.5,4.1l-11-1.4c-0.2-0.8-0.2-1.5-0.1-2.1
			c0.1-0.6,0.3-1.3,0.7-2L168.1,12.8z"/>
		<path d="M193.1,8.5l2.3,26.9L182,31.2l2.9-3.4l5.8,1.9l-0.9-10.8l-7,8.2l-2.9,3.4l-4.3-1.4L193.1,8.5z"/>
		<path d="M221.1,44l-2,3.7l-5.5-3c-1.5-0.8-2.8-1.9-3.8-3.2c-1-1.3-1.7-2.7-2.2-4.3s-0.6-3.1-0.4-4.8c0.2-1.6,0.7-3.2,1.5-4.7
			c0.8-1.5,1.9-2.8,3.2-3.8c1.3-1,2.7-1.7,4.2-2.2c1.5-0.5,3.1-0.6,4.8-0.4c1.6,0.2,3.2,0.7,4.7,1.5l5.5,3l-2,3.7l-5.5-3
			c-1-0.6-2.1-0.9-3.2-1s-2.1,0-3.2,0.3c-1,0.3-2,0.8-2.8,1.5s-1.6,1.5-2.1,2.5c-0.6,1-0.9,2.1-1,3.2c-0.1,1.1,0,2.2,0.3,3.2
			s0.8,2,1.5,2.8c0.7,0.9,1.5,1.6,2.5,2.1L221.1,44z M224.1,38.6l-2,3.6l-3.7-2l2-3.6l-7-3.8c0.1-0.8,0.3-1.5,0.7-2
			c0.3-0.6,0.8-1.1,1.4-1.6l10.6,5.8L224.1,38.6z"/>
		<path d="M236.2,54.8l-2.4,3.4l-4.2-3.1c-1.4-1-2.5-2.2-3.4-3.6c-0.8-1.4-1.4-2.9-1.6-4.5c-0.3-1.6-0.2-3.2,0.2-4.8
			c0.4-1.6,1-3.1,2.1-4.5s2.2-2.5,3.6-3.4s2.9-1.4,4.5-1.7c1.6-0.3,3.2-0.2,4.8,0.1s3.1,1,4.5,2l4.2,3.1l-2.4,3.4l-4.2-3.1
			c-0.9-0.7-1.9-1.1-3-1.4c-1.1-0.2-2.1-0.3-3.2-0.1c-1.1,0.2-2.1,0.5-3,1.1c-0.9,0.6-1.7,1.3-2.4,2.2c-0.7,0.9-1.1,1.9-1.4,3
			c-0.2,1.1-0.3,2.1-0.1,3.2c0.2,1.1,0.5,2.1,1.1,3s1.3,1.7,2.2,2.4L236.2,54.8z M242.3,46.3l-2.4,3.4l-9-6.5
			c0.2-0.8,0.5-1.4,0.9-1.9c0.4-0.5,0.9-1,1.5-1.5L242.3,46.3z"/>
		<path d="M249.9,67.2l-2.8,3.1l-3.8-3.5c-1.3-1.2-2.2-2.5-2.9-4c-0.7-1.5-1-3.1-1.1-4.7c-0.1-1.6,0.2-3.2,0.7-4.7
			c0.5-1.6,1.4-3,2.6-4.2c1.2-1.3,2.5-2.2,4-2.9c1.5-0.7,3-1,4.6-1.1s3.2,0.2,4.7,0.7c1.6,0.5,3,1.4,4.2,2.6l3.8,3.5l-2.8,3.1
			l-3.8-3.5c-0.8-0.8-1.8-1.4-2.8-1.7c-1-0.4-2.1-0.5-3.2-0.5s-2.1,0.3-3.1,0.7s-1.9,1.1-2.7,1.9c-0.8,0.8-1.4,1.8-1.7,2.8
			c-0.4,1-0.5,2.1-0.5,3.2c0,1.1,0.3,2.1,0.7,3.1c0.4,1,1.1,1.9,1.9,2.7L249.9,67.2z M257,59.6l-2.8,3.1l-8.2-7.5
			c0.3-0.7,0.7-1.3,1.1-1.8s1-0.9,1.7-1.3L257,59.6z"/>
		<path d="M270.2,58.7l-19.1,16.1l-2.7-3.2l19.1-16.1L270.2,58.7z M280.1,70.5l-14.9,1.7L261,86.6l-3.2-3.8l4.2-14.4l14.9-1.7
			L280.1,70.5z"/>
	</g>
</g>
</svg>
